<?xml version="1.0" standalone="no"?>
<!DOCTYPE svg PUBLIC "-//W3C//DTD SVG 1.1//EN" "http://www.w3.org/Graphics/SVG/1.1/DTD/svg11.dtd" >
<svg xmlns="http://www.w3.org/2000/svg">
<metadata></metadata>
<defs>
<font id="black_ops_oneregular" horiz-adv-x="0" >
<font-face units-per-em="2048" ascent="1638" descent="-410" />
<missing-glyph horiz-adv-x="530" />
<glyph />
<glyph unicode="&#xd;" />
<glyph />
<glyph />
<glyph />
<glyph />
<glyph />
<glyph />
<glyph />
<glyph />
<glyph unicode="&#x9;" />
<glyph />
<glyph />
<glyph />
<glyph />
<glyph />
<glyph />
<glyph />
<glyph />
<glyph />
<glyph />
<glyph unicode=" "  horiz-adv-x="530" />
<glyph unicode="&#x09;" horiz-adv-x="530" />
<glyph unicode="&#xa0;" horiz-adv-x="530" />
<glyph unicode="!" horiz-adv-x="753" d="M142 1327h470l-28 -885h-415zM156 0v309h442v-309h-442z" />
<glyph unicode="&#x22;" horiz-adv-x="1359" d="M181 1327h411l-47 -663h-318zM766 1327h411l-47 -663h-318z" />
<glyph unicode="#" horiz-adv-x="1699" d="M186 285l20 237h250l25 283h-249l21 237h249l25 285h237l-24 -285h214l-22 -237h-214l-22 -283h211l-21 -237h-212l-25 -285h-237l25 285h-251zM932 0l115 1327h238l-25 -285h253l-22 -237h-251l-24 -283h251l-22 -237h-251l-25 -285h-237z" />
<glyph unicode="$" horiz-adv-x="1743" d="M230 265v133h442v-133h331v-422h-302v157h-206zM230 797v265l265 265h177v-530h576l265 -267v-265l-265 -265h-178v530h-575zM740 1062v414h299v-149h209l265 -265v-133h-443v133h-330z" />
<glyph unicode="%" horiz-adv-x="2392" d="M164 783v346l200 200h197v-200h-64v-346h64v-201h-197zM631 582v201h65v346h-65v200h198l200 -200v-346l-200 -201h-198zM746 -196l613 1654h250l-613 -1654h-250zM1363 200v347l199 199h197v-199h-64v-347h64v-200h-197zM1829 0v200h66v347h-66v199h199l199 -199v-347 l-199 -200h-199z" />
<glyph unicode="&#x26;" horiz-adv-x="1666" d="M151 219v320l191 197l206 -240v-241h211l174 -206l-57 -49h-502zM285 905v198l226 224h199v-347l350 -406l301 234l218 -252l-296 -241l272 -315h-489l-780 904zM780 1062v265h363l222 -222v-176h-415v133h-170z" />
<glyph unicode="'" horiz-adv-x="773" d="M181 1327h411l-47 -663h-318z" />
<glyph unicode="(" horiz-adv-x="978" d="M238 124v1080l257 265h341v-265h-164v-1080h164v-266h-341z" />
<glyph unicode=")" horiz-adv-x="978" d="M142 124v-266h341l257 266v1080l-257 265h-341v-265h164v-1080h-164z" />
<glyph unicode="*" horiz-adv-x="1392" d="M161 1008l71 222l299 -46l47 297h233l46 -297l302 49l72 -225l-271 -137l142 -273l-190 -137l-216 217l-216 -217l-191 139l140 271z" />
<glyph unicode="+" horiz-adv-x="1439" d="M186 501v239h415v413h241v-413h411v-239h-411v-415h-241v415h-415z" />
<glyph unicode="," horiz-adv-x="736" d="M147 0v309h442v-309l-177 -265h-265l123 265h-123z" />
<glyph unicode="-" horiz-adv-x="1255" d="M186 501v239h883v-239h-883z" />
<glyph unicode="." horiz-adv-x="736" d="M147 0v309h442v-309h-442z" />
<glyph unicode="/" horiz-adv-x="746" d="M-80 -196l612 1614h250l-613 -1614h-249z" />
<glyph unicode="0" horiz-adv-x="1499" d="M108 265v797l266 265h507v-265h-331v-1062h-176zM618 0v265h331v1062h177l265 -265v-797l-265 -265h-508z" />
<glyph unicode="1" horiz-adv-x="1167" d="M142 0v265h884v-265h-884zM142 1062v132l132 133h531v-1001h-442v736h-221z" />
<glyph unicode="2" horiz-adv-x="1464" d="M108 0v476l283 266h523v585h177l265 -265v-328l-265 -265h-541v-469h-442zM108 895v167l266 265h470v-239h-294v-193h-442zM620 0v239h736v-239h-736z" />
<glyph unicode="3" horiz-adv-x="1495" d="M104 265v205h442v-187h328v-283h-505zM104 851v211l265 265h505v-282h-328v-194h-442zM636 560v231h308v536h177l266 -265v-261l-157 -133l157 -135v-269l-266 -264h-177v560h-308z" />
<glyph unicode="4" horiz-adv-x="1392" d="M13 431l679 806v-525l-241 -268h241v-259h-574zM762 0v1327h425v-883h150v-259h-150v-185h-425z" />
<glyph unicode="5" horiz-adv-x="1498" d="M107 265v149h443v-149h302v-265h-479zM107 594v733h1196v-265h-797v-468h-399zM576 594v248h523l265 -266v-311l-265 -265h-177v594h-346z" />
<glyph unicode="6" horiz-adv-x="1499" d="M108 265v797l266 265h343v-265h-167v-797h167v-265h-343zM618 576v248h513l260 -243v-316l-265 -265h-339v265h179v311h-348zM787 1062v265h339l265 -265v-97h-442v97h-162z" />
<glyph unicode="7" horiz-adv-x="1299" d="M52 860v334l131 133h1064v-265h-762v-202h-433zM346 0l445 994h424l-401 -994h-468z" />
<glyph unicode="8" horiz-adv-x="1541" d="M108 265v276l159 131l-159 130v260l266 265h364v-265h-192v-266h192v-248h-192v-283h192v-265h-364zM808 0v265h205v283h-205v248h205v266h-205v265l360 -1l265 -265v-257l-158 -133l158 -133v-274l-265 -265z" />
<glyph unicode="9" horiz-adv-x="1499" d="M108 265v89h442v-89h165v-265h-341zM108 762v300l266 265h341v-265h-165v-300h331v-266h-507zM783 0v265h166v797h-166v265h343l265 -265v-797l-265 -265h-343z" />
<glyph unicode=":" horiz-adv-x="736" d="M147 0v309h442v-309h-442zM147 753v309h442v-309h-442z" />
<glyph unicode=";" horiz-adv-x="736" d="M147 0v309h442v-309l-177 -265h-265l123 265h-123zM147 753v309h442v-309h-442z" />
<glyph unicode="&#x3c;" horiz-adv-x="1439" d="M186 524v235l1067 292v-249zM240 466l452 116l561 -148v-248z" />
<glyph unicode="=" horiz-adv-x="1439" d="M186 204v238h1067v-238h-1067zM186 761v239h1067v-239h-1067z" />
<glyph unicode="&#x3e;" horiz-adv-x="1439" d="M185 186v249l1067 278v-235zM185 803v248l1013 -280l-452 -116z" />
<glyph unicode="?" horiz-adv-x="1407" d="M79 929v131l266 267h717l265 -265v-230l-265 -266h-190v-124h-444v124l266 266h191v230h-363v-133h-443zM428 0v309h444v-309h-444z" />
<glyph unicode="@" horiz-adv-x="1585" d="M95 264v709l307 309h363v-220h-232l-218 -218v-449l218 -218h252v-220h-385zM687 398v443h212v-520l144 -143l316 -1l-177 -220h-343v441h-152zM819 1062v220h363l308 -309v-575h-219v443l-223 221h-229z" />
<glyph unicode="A" horiz-adv-x="1500" d="M9 0l474 1267l196 -527l-243 -740h-427zM531 1327h431l529 -1327h-447l-56 145h-434l92 263h240z" />
<glyph unicode="B" horiz-adv-x="1495" d="M117 0v1327h442v-1327h-442zM629 0v265h328v283h-328v231h328v283h-328v265h513l266 -265v-270l-133 -133l133 -133v-261l-266 -265h-513z" />
<glyph unicode="C" horiz-adv-x="1440" d="M97 265v797l266 265h176v-1327h-176zM609 0v265h294v194h442v-194l-265 -265h-471zM609 1062v265h471l265 -265v-267h-442v267h-294z" />
<glyph unicode="D" horiz-adv-x="1486" d="M117 0v1327h442v-1327h-442zM629 0v265h328v797h-328v265h505l266 -265v-797l-266 -265h-505z" />
<glyph unicode="E" horiz-adv-x="1415" d="M117 0v1327h442v-526h423v-256h-423v-545h-442zM629 0v265h249v133h442v-398h-691zM629 1070v257h691v-384h-416v127h-275z" />
<glyph unicode="F" horiz-adv-x="1329" d="M117 0v1327h442v-593h408v-261h-408v-473h-442zM629 1062v265h674v-440h-442v175h-232z" />
<glyph unicode="G" horiz-adv-x="1495" d="M115 265v797l265 265h177v-1062h379v-265h-556zM627 1062v265h539l232 -265v-133h-442v133h-329zM791 473v263h607v-736h-392v473h-215z" />
<glyph unicode="H" horiz-adv-x="1516" d="M117 0v1327h442v-1327h-442zM629 539v266h325v522h446v-1327h-443v539h-328z" />
<glyph unicode="I" horiz-adv-x="902" d="M97 0v283h133v762h-133v282h708v-282h-133v-762h133v-283h-708z" />
<glyph unicode="J" horiz-adv-x="1369" d="M52 265v291h459v-291h242v-265h-435zM213 1038v289h1052v-1062l-265 -265h-177v1038h-610z" />
<glyph unicode="K" horiz-adv-x="1370" d="M117 0v1327h442v-1327h-442zM627 188v645l310 493l460 1zM790 309l262 393l366 -702h-478z" />
<glyph unicode="L" horiz-adv-x="1267" d="M117 0v1327h442v-1327h-442zM629 0v265h219v168h401v-433h-620z" />
<glyph unicode="M" horiz-adv-x="1848" d="M117 0v1204l413 -693v-511h-413zM118 1327h470l356 -590l280 480v-668l-319 -549zM1289 0v1327h442v-1327h-442z" />
<glyph unicode="N" horiz-adv-x="1508" d="M117 0v1201l385 -631v-570h-385zM117 1327h467l807 -1327h-470zM1006 760v567h385v-1201z" />
<glyph unicode="O" horiz-adv-x="1463" d="M86 265v797l269 265h340v-269h-166v-788h166v-270h-340zM765 0v270h169v788h-169v269h343l268 -265v-797l-268 -265h-343z" />
<glyph unicode="P" horiz-adv-x="1458" d="M115 0v1327h434v-1327h-434zM619 341v266h321v455h-321v265h496l265 -265v-455l-265 -266h-496z" />
<glyph unicode="Q" horiz-adv-x="1477" d="M96 265v797l266 265h341v-265h-165v-797h350l431 -407l-237 -230l-389 372h-331zM771 1062v265h343l265 -265v-797l-191 -193l-251 232v758h-166z" />
<glyph unicode="R" horiz-adv-x="1486" d="M117 0v1327h442v-1327h-442zM629 398v257h332v407h-332v265h505l266 -265v-398l-204 -204l-14 28l-415 -55l16 -35h-154zM783 398h351l62 62l249 -460h-472z" />
<glyph unicode="S" horiz-adv-x="1477" d="M97 265v133h442v-158h328v-240h-547zM97 763v299l266 265h150v-471h610l257 -266v-325l-265 -265h-178v497h-574zM583 1088v239h531l230 -231v-141h-407v133h-354z" />
<glyph unicode="T" horiz-adv-x="1256" d="M52 1038v289h1152v-289h-1152zM398 0v969h460v-969h-460z" />
<glyph unicode="U" horiz-adv-x="1495" d="M106 265v1062h443v-1062h163v-265h-340zM782 0v265h164v1062h442v-1062l-265 -265h-341z" />
<glyph unicode="V" horiz-adv-x="1371" d="M-26 1327h451l459 -1327h-430zM739 624l214 703h444l-459 -1287z" />
<glyph unicode="W" horiz-adv-x="1928" d="M-26 1327h440l195 -729l133 557l173 -630l-143 -525h-401zM761 1327h446l340 -1327h-422zM1414 776l137 551h403l-360 -1258z" />
<glyph unicode="X" horiz-adv-x="1342" d="M-26 0l423 618l237 -360l-155 -258h-505zM1 1327h477l890 -1327h-482zM720 1072l155 255h474l-393 -600z" />
<glyph unicode="Y" horiz-adv-x="1297" d="M-26 1327h434l459 -936v-391h-443v422zM680 920l218 407h425l-428 -843z" />
<glyph unicode="Z" horiz-adv-x="1271" d="M52 0v248l867 1079h300v-257l-876 -1070h-291zM79 1037v290h753l-251 -290h-502zM432 0l252 291h517v-291h-769z" />
<glyph unicode="[" horiz-adv-x="978" d="M274 -142v1611h562v-265h-164v-1080h164v-266h-562z" />
<glyph unicode="\" horiz-adv-x="746" d="M-34 1418l613 -1614h249l-612 1614h-250z" />
<glyph unicode="]" horiz-adv-x="978" d="M141 124v-266h562v1611h-562v-265h164v-1080h-164z" />
<glyph unicode="^" horiz-adv-x="1290" d="M174 100l302 1013l122 -432l-158 -581h-266zM534 1167h236l346 -1067h-266z" />
<glyph unicode="_" horiz-adv-x="1331" d="M-86 -200h1503v-193h-1503v193z" />
<glyph unicode="`" horiz-adv-x="1098" d="M121 1522l184 85l486 -316l-61 -147l-555 167z" />
<glyph unicode="a" horiz-adv-x="1331" d="M86 175v266l178 177h470v-184h-228v-186h228v-117l-132 -131h-338zM175 797v132l133 133h663l265 -265v-797h-432v797h-629z" />
<glyph unicode="b" horiz-adv-x="1340" d="M104 0v1467h442v-1467h-442zM616 0v248h198v549h-198v134l130 131h242l266 -265v-532l-266 -265h-372z" />
<glyph unicode="c" horiz-adv-x="1323" d="M95 265v532l265 265h177v-1062h-177zM607 0v248h196v133h442v-116l-265 -265h-373zM607 797v265h373l265 -265v-159h-442v159h-196z" />
<glyph unicode="d" horiz-adv-x="1366" d="M95 239v584l239 239h416v-265h-213v-549h213v-143l-105 -105h-311zM820 0v1467h442v-1467h-442z" />
<glyph unicode="e" horiz-adv-x="1331" d="M95 265v532l265 265h177v-1062h-177zM607 0v248h594v-115l-132 -133h-462zM607 426v185h233v186h-233v265h375l265 -265v-371h-640z" />
<glyph unicode="f" horiz-adv-x="907" d="M38 797v265h105v157l267 248h496v-265h-320v-1202h-443v797h-105zM653 797l3 265h250v-265h-253z" />
<glyph unicode="g" horiz-adv-x="1340" d="M95 265v532l265 265h177v-814h196v-117l-132 -131h-241zM264 -140h539v937h-196v265h373l265 -265v-902l-265 -267h-583l-133 134v98z" />
<glyph unicode="h" horiz-adv-x="1349" d="M104 0v1467h442v-1467h-442zM616 797v134l130 131h242l266 -265v-797h-443v797h-195z" />
<glyph unicode="i" horiz-adv-x="653" d="M105 0v1062h443v-1062h-443zM105 1194v282h443v-282h-443z" />
<glyph unicode="j" horiz-adv-x="653" d="M-100 -88h205v1150h443v-1150l-266 -266h-382v266zM105 1194v282h442v-282h-442z" />
<glyph unicode="k" horiz-adv-x="1312" d="M104 0v1467h442v-1467h-442zM615 150v606l204 304l457 1zM746 214l261 352l292 -566h-480z" />
<glyph unicode="l" horiz-adv-x="753" d="M104 248v1219h442v-1202h198v-265h-392z" />
<glyph unicode="m" horiz-adv-x="2043" d="M119 0v1062h443v-1062h-443zM632 797v125l139 140h342l142 -142v-920h-443v797h-180zM1325 797v123l136 142h270l216 -218v-844h-442v797h-180z" />
<glyph unicode="n" horiz-adv-x="1356" d="M104 0v1062h446v-1062h-446zM622 797v116l148 149h246l239 -239v-823h-443v797h-190z" />
<glyph unicode="o" horiz-adv-x="1383" d="M95 265v532l265 265h297v-265h-115v-549h115v-248h-297zM727 0v248h110v549h-110v265h296l265 -265v-532l-265 -265h-296z" />
<glyph unicode="p" horiz-adv-x="1349" d="M104 -354v1416h442v-1416h-442zM616 0v248h195v549h-195v134l130 131h242l266 -265v-532l-266 -265h-372z" />
<glyph unicode="q" horiz-adv-x="1350" d="M95 265v532l266 265h176v-814h197v-117l-132 -131h-241zM607 797v265h373l266 -265v-1151h-312l-130 133v1018h-197z" />
<glyph unicode="r" horiz-adv-x="1280" d="M104 0v1062h442v-1062h-442zM617 797v116l148 149h268l215 -248v-275h-443v258h-188z" />
<glyph unicode="s" horiz-adv-x="1315" d="M95 219v85h443v-109h196v-195l-455 1zM96 622v202l239 238h177v-375h504l230 -232v-207l-247 -248h-195v401h-478zM582 867v195h470l158 -158v-120h-406v83h-222z" />
<glyph unicode="t" horiz-adv-x="915" d="M28 797v265h88v115l442 150v-1062h292v-265h-468l-266 265v532h-88zM628 797v265h238v-265h-238z" />
<glyph unicode="u" horiz-adv-x="1350" d="M95 265v797h442v-797h197v-132l-128 -133h-245zM804 0v1062h442v-1062h-442z" />
<glyph unicode="v" horiz-adv-x="1192" d="M-14 1062h439l378 -1062h-420zM650 621l143 441h413l-358 -1003z" />
<glyph unicode="w" horiz-adv-x="1846" d="M-14 1062h422l173 -553l123 383l159 -489l-126 -404l-1 1h-369zM710 1062h417l342 -1062h-401zM1327 638l119 424h414l-347 -996z" />
<glyph unicode="x" horiz-adv-x="1140" d="M-14 0l295 506l237 -357l-72 -149h-460zM-14 1062h460l707 -1062h-459zM619 915l75 147h459l-306 -490z" />
<glyph unicode="y" horiz-adv-x="1221" d="M-14 1062h441l149 -432l-198 -541zM272 -370l538 1432h425l-539 -1432h-424z" />
<glyph unicode="z" horiz-adv-x="1181" d="M95 0v257l690 805h305v-265l-699 -797h-296zM105 797v265h597l-229 -265h-368zM473 0l235 265h383v-265h-618z" />
<glyph unicode="{" horiz-adv-x="978" d="M87 664l143 153v387l265 265h333v-265h-164v-387l-144 -133l144 -174v-386h164v-266h-333l-265 266v386z" />
<glyph unicode="|" horiz-adv-x="700" d="M230 -196v1614h240v-1614h-240z" />
<glyph unicode="}" horiz-adv-x="978" d="M148 124v-266h333l265 266v386l143 154l-143 153v387l-265 265h-333v-265h164v-387l144 -133l-144 -174v-386h-164z" />
<glyph unicode="~" horiz-adv-x="1491" d="M113 513l237 294h400l238 -238h103l208 149l88 -90l-234 -292h-403l-233 233h-108l-209 -144z" />
<glyph unicode="&#xa1;" horiz-adv-x="753" d="M141 -104l28 885h415l27 -885h-470zM155 914v309h442v-309h-442z" />
<glyph unicode="&#xa2;" horiz-adv-x="1610" d="M230 398v531l265 265h177v-796h198v-415h-265v150h-110zM740 929v415h265v-150h110l265 -265v-132h-443v132h-197zM937 133v397h443v-132l-265 -265h-178z" />
<glyph unicode="&#xa3;" horiz-adv-x="1743" d="M230 0v265l177 -1v1v255h-177v188h177v443l265 265h177v-708h307v-188h-307v-520h-619zM917 0v265l596 -1v-264h-596zM917 1151v265h322l265 -265v-131h-399v131h-188z" />
<glyph unicode="&#xa4;" horiz-adv-x="1461" d="M110 157l219 225l-85 84v162h241v-211h211v-249h-153l-94 94l-224 -220zM110 1168l115 117l224 -220l94 94h153v-253h-211v-197h-241v152l85 84zM778 168v249h216v211h241v-162l-95 -93l211 -216l-116 -115l-215 213l-84 -87h-158zM778 906v253h158l84 -87l215 213 l116 -117l-211 -214l95 -93v-152h-241v197h-216z" />
<glyph unicode="&#xa5;" horiz-adv-x="1739" d="M195 1327h425l422 -771h320v-133h-274v-109h274v-132h-274v-182h-443v182h-274v132h274v109h-274v133h244zM895 964l224 363h425l-396 -711h-57z" />
<glyph unicode="&#xa6;" horiz-adv-x="698" d="M230 -196v708h238v-708h-238zM230 697v721h238v-721h-238z" />
<glyph unicode="&#xa7;" horiz-adv-x="1573" d="M181 68v113h438v-113h133v-189h-380zM181 1085v215l190 190h380v-190h-133v-215h559l192 -189v-356h-413v356l-586 1zM216 473v356h402v-356h584l190 -190v-215l-189 -189h-380v189h133v215h-547zM822 1300v190h380l190 -190v-113h-437v113h-133z" />
<glyph unicode="&#xa8;" horiz-adv-x="1414" d="M274 1279v281h336v-281h-336zM804 1279v281h336v-281h-336z" />
<glyph unicode="&#xa9;" horiz-adv-x="1586" d="M95 265v708l309 309h364v-220h-223l-194 -195v-497l192 -193h243v-220h-382zM687 398v443h212v-133h337v159l-191 195h-223v220h361l308 -309v-708l-308 -308h-344v220h207l190 191v162h-337v-132h-212z" />
<glyph unicode="&#xaa;" horiz-adv-x="1145" d="M142 662v207l132 132h329v-145h-130v-127h130v-101l-99 -98h-230zM206 1128v100l100 99h498l199 -199v-598h-333v598h-464zM350 52v176l133 133h177l132 -133v-176l-132 -133h-177z" />
<glyph unicode="&#xab;" horiz-adv-x="1722" d="M202 459v154l420 432h265l-281 -509l281 -509h-265zM834 459v154l420 432h265l-281 -509l281 -509h-265z" />
<glyph unicode="&#xac;" horiz-adv-x="1623" d="M186 731v238h1251v-699h-239v461h-1012z" />
<glyph unicode="&#xad;" horiz-adv-x="1077" d="M97 486v266h885v-266h-885z" />
<glyph unicode="&#xae;" horiz-adv-x="1586" d="M95 265v708l309 309h362v-220h-419v-885h154v-220h-97zM555 -43v220h141v265h76l133 -265h127v-220h-477zM696 655v194h195v-194h-195zM820 1062v220h363l308 -309v-708l-308 -308h-98v220h182l-164 306l134 135v267l-177 177h-240z" />
<glyph unicode="&#xaf;" horiz-adv-x="1238" d="M251 1223v170h729v-170h-729z" />
<glyph unicode="&#xb0;" horiz-adv-x="1173" d="M138 724v360l242 243h173v-246h-147v-363h147v-237h-173zM620 481v237h147v363h-147v246h172l243 -243v-360l-243 -243h-172z" />
<glyph unicode="&#xb1;" horiz-adv-x="1439" d="M186 74v239h1067v-239h-1067zM186 670v240h415v230h241v-230h411v-240h-411v-228h-241v228h-415z" />
<glyph unicode="&#xb2;" horiz-adv-x="1083" d="M97 398v340l186 186h384v403h124l203 -186v-217l-185 -186h-385v-340h-327zM97 1047v94l186 186h314v-186h-190v-94h-310zM485 398v186h527v-186h-527z" />
<glyph unicode="&#xb3;" horiz-adv-x="1076" d="M79 582v95h310v-95h209v-184h-333zM79 1047v94l186 186h333v-186h-209v-94h-310zM359 772v184h306v371h127l186 -182v-189l-92 -95l92 -89v-190l-186 -184h-127v374h-306z" />
<glyph unicode="&#xb4;" horiz-adv-x="1098" d="M274 1291l486 316l184 -85l-54 -211l-554 -167z" />
<glyph unicode="&#xb6;" horiz-adv-x="1610" d="M176 444v618l266 265h475v-265h-132v-618h132v-267h-475zM983 -191v1518h441v-1253l-265 -265h-176z" />
<glyph unicode="&#xb7;" horiz-adv-x="725" d="M141 596v177l132 133h177l133 -133v-177l-133 -132h-177z" />
<glyph unicode="&#xb8;" horiz-adv-x="1008" d="M285 -225h285v163h202v-245l-175 -200h-312v282z" />
<glyph unicode="&#xb9;" horiz-adv-x="902" d="M142 398v186h636v-186h-636zM142 1141v186h480v-676h-325v490h-155z" />
<glyph unicode="&#xba;" horiz-adv-x="1148" d="M142 731v398l199 200h198v-200h-65v-398h65v-201h-198zM353 52v176l133 133h178l132 -133v-176l-132 -133h-178zM607 530v201h67v398h-67v200h200l200 -200v-398l-200 -201h-200z" />
<glyph unicode="&#xbb;" horiz-adv-x="1720" d="M202 26l281 509l-281 509h265l420 -432v-154l-420 -432h-265zM832 26l281 509l-281 509h265l420 -432v-154l-420 -432h-265z" />
<glyph unicode="&#xbc;" horiz-adv-x="2398" d="M186 398v186h619v-186h-619zM186 1141v186h463v-676h-308v490h-155zM789 0l479 1327h248l-479 -1327h-248zM1314 139v170l455 530v-368l-158 -162h158v-170h-455zM1836 0v929h309v-620h145v-170h-145v-139h-309z" />
<glyph unicode="&#xbd;" horiz-adv-x="2550" d="M186 398v186h619v-186h-619zM186 1141v186h463v-676h-309v490h-154zM787 0l480 1327h249l-479 -1327h-250zM1486 15v340l186 186h384v403h124l203 -186v-217l-185 -186h-385v-340h-327zM1486 664v94l186 186h314v-186h-190v-94h-310zM1874 15v186h527v-186h-527z" />
<glyph unicode="&#xbe;" horiz-adv-x="2519" d="M79 582v95h310v-95h209v-184h-333zM79 1047v94l186 186h333v-186h-209v-94h-310zM359 772v184h306v371h127l186 -182v-189l-92 -95l92 -89v-190l-186 -184h-127v374h-306zM916 0l479 1327h250l-479 -1327h-250zM1460 139v170l455 530v-368l-158 -162h158v-170h-455z M1982 0v929h309v-620h145v-170h-145v-139h-309z" />
<glyph unicode="&#xbf;" horiz-adv-x="1407" d="M78 161v230l265 266h190v124h444v-124l-266 -266h-191v-230h363v133h443v-131l-266 -267h-717zM533 914v309h444v-309h-444z" />
<glyph unicode="&#xc0;" horiz-adv-x="1500" d="M9 0l474 1267l196 -527l-243 -740h-427zM305 1689l155 78l446 -240l-52 -122l-502 115zM531 1327h431l529 -1327h-447l-56 145h-434l92 263h240z" />
<glyph unicode="&#xc1;" horiz-adv-x="1500" d="M9 0l474 1267l196 -527l-243 -740h-427zM531 1327h431l529 -1327h-447l-56 145h-434l92 263h240zM586 1527l446 240l155 -78l-47 -169l-503 -115z" />
<glyph unicode="&#xc2;" horiz-adv-x="1500" d="M9 0l474 1267l196 -527l-243 -740h-427zM363 1473l256 259h252l254 -260l-76 -79l-303 159l-306 -159zM531 1327h431l529 -1327h-447l-56 145h-434l92 263h240z" />
<glyph unicode="&#xc3;" horiz-adv-x="1500" d="M9 0l474 1267l196 -527l-243 -740h-427zM318 1513l207 214h205l160 -117h41l181 107l64 -78l-207 -214h-205l-160 116h-41l-181 -106zM531 1327h431l529 -1327h-447l-56 145h-434l92 263h240z" />
<glyph unicode="&#xc4;" horiz-adv-x="1500" d="M9 0l474 1267l196 -527l-243 -740h-427zM313 1461v221h336v-221h-336zM531 1327h431l529 -1327h-447l-56 145h-434l92 263h240zM843 1461v221h336v-221h-336z" />
<glyph unicode="&#xc5;" horiz-adv-x="1500" d="M9 0l474 1267l196 -527l-243 -740h-427zM458 1401v229l138 137h115v-155h-76v-226h223v226h-77v155h114l139 -137v-229l-75 -74h3l529 -1327h-447l-46 117h-454l92 263h261l-366 947h1z" />
<glyph unicode="&#xc6;" horiz-adv-x="2305" d="M9 0l633 1327h297v-276l-261 -577h261v-263h-379l-95 -211h-456zM1007 0v1327h442v-530h442v-267h-442v-530h-442zM1516 0v265h287v133h443v-398h-730zM1516 1062v265h730v-398h-443v133h-287z" />
<glyph unicode="&#xc7;" horiz-adv-x="1440" d="M97 265v797l266 265h176v-1327h-176zM437 -225h285v163h202v-245l-175 -200h-312v282zM609 0v265h294v194h442v-194l-265 -265h-471zM609 1062v265h471l265 -265v-267h-442v267h-294z" />
<glyph unicode="&#xc8;" horiz-adv-x="1415" d="M117 0v1327h442v-526h423v-256h-423v-545h-442zM294 1689l155 78l446 -240l-52 -122l-502 115zM629 0v265h249v133h442v-398h-691zM629 1070v257h691v-384h-416v127h-275z" />
<glyph unicode="&#xc9;" horiz-adv-x="1415" d="M117 0v1327h442v-526h423v-256h-423v-545h-442zM575 1527l446 240l155 -78l-47 -169l-503 -115zM629 0v265h249v133h442v-398h-691zM629 1070v257h691v-384h-416v127h-275z" />
<glyph unicode="&#xca;" horiz-adv-x="1415" d="M117 0v1327h442v-526h423v-256h-423v-545h-442zM352 1473l256 259h252l254 -260l-76 -79l-303 159l-306 -159zM629 0v265h249v133h442v-398h-691zM629 1070v257h691v-384h-416v127h-275z" />
<glyph unicode="&#xcb;" horiz-adv-x="1415" d="M117 0v1327h442v-526h423v-256h-423v-545h-442zM302 1461v221h336v-221h-336zM629 0v265h249v133h442v-398h-691zM629 1070v257h691v-384h-416v127h-275zM832 1461v221h336v-221h-336z" />
<glyph unicode="&#xcc;" horiz-adv-x="902" d="M11 1688l155 78l446 -240l-52 -122l-502 115zM97 0v283h133v762h-133v282h708v-282h-133v-762h133v-283h-708z" />
<glyph unicode="&#xcd;" horiz-adv-x="902" d="M97 0v283h133v762h-133v282h708v-282h-133v-762h133v-283h-708zM291 1526l446 240l155 -78l-47 -169l-503 -115z" />
<glyph unicode="&#xce;" horiz-adv-x="902" d="M69 1472l256 259h252l254 -260l-76 -79l-303 159l-306 -159zM97 0v283h133v762h-133v282h708v-282h-133v-762h133v-283h-708z" />
<glyph unicode="&#xcf;" horiz-adv-x="902" d="M19 1460v221h336v-221h-336zM97 0v283h133v762h-133v282h708v-282h-133v-762h133v-283h-708zM549 1460v221h336v-221h-336z" />
<glyph unicode="&#xd0;" horiz-adv-x="1496" d="M29 570v187h88v570h442v-570h215v-187h-215v-570h-442v570h-88zM629 0v265h328v797h-328v265h505l266 -265v-797l-266 -265h-505z" />
<glyph unicode="&#xd1;" horiz-adv-x="1508" d="M117 0v1201l385 -631v-570h-385zM117 1327h467l807 -1327h-470zM316 1512l207 214h205l160 -117h41l181 107l64 -78l-207 -214h-205l-160 116h-41l-181 -106zM1006 760v567h385v-1201z" />
<glyph unicode="&#xd2;" horiz-adv-x="1463" d="M86 265v797l269 265h340v-269h-166v-788h166v-270h-340zM290 1689l155 78l446 -240l-52 -122l-502 115zM765 0v270h169v788h-169v269h343l268 -265v-797l-268 -265h-343z" />
<glyph unicode="&#xd3;" horiz-adv-x="1463" d="M86 265v797l269 265h340v-269h-166v-788h166v-270h-340zM571 1527l446 240l155 -78l-47 -169l-503 -115zM765 0v270h169v788h-169v269h343l268 -265v-797l-268 -265h-343z" />
<glyph unicode="&#xd4;" horiz-adv-x="1463" d="M86 265v797l269 265h340v-269h-166v-788h166v-270h-340zM348 1473l256 259h252l254 -260l-76 -79l-303 159l-306 -159zM765 0v270h169v788h-169v269h343l268 -265v-797l-268 -265h-343z" />
<glyph unicode="&#xd5;" horiz-adv-x="1463" d="M86 265v797l269 265h340v-269h-166v-788h166v-270h-340zM303 1513l207 214h205l160 -117h41l181 107l64 -78l-207 -214h-205l-160 116h-41l-181 -106zM765 0v270h169v788h-169v269h343l268 -265v-797l-268 -265h-343z" />
<glyph unicode="&#xd6;" horiz-adv-x="1463" d="M86 265v797l269 265h340v-269h-166v-788h166v-270h-340zM298 1461v221h336v-221h-336zM765 0v270h169v788h-169v269h343l268 -265v-797l-268 -265h-343zM828 1461v221h336v-221h-336z" />
<glyph unicode="&#xd7;" horiz-adv-x="1331" d="M187 310l316 311l-314 311l166 170l311 -316l311 315l165 -168l-313 -310l315 -311l-167 -170l-313 315l-312 -315z" />
<glyph unicode="&#xd8;" horiz-adv-x="1456" d="M86 265v797l267 265h461l-73 -265h-212v-797h116l-111 -437l-347 84l53 199zM646 0l69 264l212 1v797h-113l109 437l348 -84l-54 -202l152 -151v-797l-265 -265h-458z" />
<glyph unicode="&#xd9;" horiz-adv-x="1495" d="M106 265v1062h443v-1062h163v-265h-340zM306 1688l155 78l446 -240l-52 -122l-502 115zM782 0v265h164v1062h442v-1062l-265 -265h-341z" />
<glyph unicode="&#xda;" horiz-adv-x="1495" d="M106 265v1062h443v-1062h163v-265h-340zM587 1526l446 240l155 -78l-47 -169l-503 -115zM782 0v265h164v1062h442v-1062l-265 -265h-341z" />
<glyph unicode="&#xdb;" horiz-adv-x="1495" d="M106 265v1062h443v-1062h163v-265h-340zM364 1472l256 259h252l254 -260l-76 -79l-303 159l-306 -159zM782 0v265h164v1062h442v-1062l-265 -265h-341z" />
<glyph unicode="&#xdc;" horiz-adv-x="1495" d="M106 265v1062h443v-1062h163v-265h-340zM314 1460v221h336v-221h-336zM782 0v265h164v1062h442v-1062l-265 -265h-341zM844 1460v221h336v-221h-336z" />
<glyph unicode="&#xdd;" horiz-adv-x="1297" d="M-26 1327h434l459 -936v-391h-443v422zM488 1526l446 240l155 -78l-47 -169l-503 -115zM680 920l218 407h425l-428 -843z" />
<glyph unicode="&#xde;" horiz-adv-x="1464" d="M104 0v1327h433v-1327h-433zM607 209v265h328v399h-328v265h496l266 -265v-399l-266 -265h-496z" />
<glyph unicode="&#xdf;" horiz-adv-x="1443" d="M104 0v1203l265 264h177v-1467h-442zM614 1203v264h402l221 -220v-345l-71 -68l199 -203v-378l-253 -253h-446v265h258v429h-229v214h150v295h-231z" />
<glyph unicode="&#xe0;" horiz-adv-x="1331" d="M86 175v266l178 177h470v-184h-228v-186h228v-117l-132 -131h-338zM175 797v132l133 133h663l265 -265v-797h-432v797h-629zM289 1522l184 85l486 -316l-61 -147l-555 167z" />
<glyph unicode="&#xe1;" horiz-adv-x="1331" d="M86 175v266l178 177h470v-184h-228v-186h228v-117l-132 -131h-338zM175 797v132l133 133h663l265 -265v-797h-432v797h-629zM381 1291l486 316l184 -85l-54 -211l-554 -167z" />
<glyph unicode="&#xe2;" horiz-adv-x="1331" d="M86 175v266l178 177h470v-184h-228v-186h228v-117l-132 -131h-338zM175 797v132l133 133h663l265 -265v-797h-432v797h-629zM219 1250l295 335h304l295 -335l-93 -97l-354 210l-353 -210z" />
<glyph unicode="&#xe3;" horiz-adv-x="1331" d="M86 175v266l178 177h470v-184h-228v-186h228v-117l-132 -131h-338zM175 797v132l133 133h663l265 -265v-797h-432v797h-629zM228 1344l195 214h283l108 -151h67l138 115l87 -87l-195 -214h-283l-108 150h-67l-138 -114z" />
<glyph unicode="&#xe4;" horiz-adv-x="1331" d="M86 175v266l178 177h470v-184h-228v-186h228v-117l-132 -131h-338zM175 797v132l133 133h663l265 -265v-797h-432v797h-629zM232 1279v281h336v-281h-336zM762 1279v281h336v-281h-336z" />
<glyph unicode="&#xe5;" horiz-adv-x="1331" d="M86 175v266l178 177h470v-184h-228v-186h228v-117l-132 -131h-338zM175 797v132l133 133h663l265 -265v-797h-432v797h-629zM394 1337v208l137 137h99v-155h-77v-171h77v-156h-99zM699 1200v156h78v171h-78v155h97l139 -137v-208l-139 -137h-97z" />
<glyph unicode="&#xe6;" horiz-adv-x="2030" d="M86 175v276l178 177h460v-194h-195v-169h97v-265h-362zM175 797v132l133 133h617l92 -89l87 89h232v-265h-100v-532h100v-265h-232l-89 88l-90 -88h-229v265h98v532h-619zM1309 434v194h193v169h-96v265h273l266 -265v-363h-636zM1406 0v265h494v-132l-132 -133h-362z " />
<glyph unicode="&#xe7;" horiz-adv-x="1323" d="M95 265v532l265 265h177v-1062h-177zM362 -225h285v163h202v-245l-175 -200h-312v282zM607 0v248h196v133h442v-116l-265 -265h-373zM607 797v265h373l265 -265v-159h-442v159h-196z" />
<glyph unicode="&#xe8;" horiz-adv-x="1331" d="M95 265v532l265 265h177v-1062h-177zM291 1522l184 85l486 -316l-61 -147l-555 167zM607 0v248h594v-115l-132 -133h-462zM607 426v185h233v186h-233v265h375l265 -265v-371h-640z" />
<glyph unicode="&#xe9;" horiz-adv-x="1331" d="M95 265v532l265 265h177v-1062h-177zM383 1291l486 316l184 -85l-54 -211l-554 -167zM607 0v248h594v-115l-132 -133h-462zM607 426v185h233v186h-233v265h375l265 -265v-371h-640z" />
<glyph unicode="&#xea;" horiz-adv-x="1331" d="M95 265v532l265 265h177v-1062h-177zM221 1250l295 335h304l295 -335l-93 -97l-354 210l-353 -210zM607 0v248h594v-115l-132 -133h-462zM607 426v185h233v186h-233v265h375l265 -265v-371h-640z" />
<glyph unicode="&#xeb;" horiz-adv-x="1331" d="M95 265v532l265 265h177v-1062h-177zM234 1279v281h336v-281h-336zM607 0v248h594v-115l-132 -133h-462zM607 426v185h233v186h-233v265h375l265 -265v-371h-640zM764 1279v281h336v-281h-336z" />
<glyph unicode="&#xec;" horiz-adv-x="653" d="M-49 1522l184 85l486 -316l-61 -147l-555 167zM105 0v1062h443v-1062h-443z" />
<glyph unicode="&#xed;" horiz-adv-x="653" d="M43 1291l486 316l184 -85l-54 -211l-554 -167zM105 0v1062h443v-1062h-443z" />
<glyph unicode="&#xee;" horiz-adv-x="653" d="M-119 1250l295 335h304l295 -335l-93 -97l-354 210l-353 -210zM105 0v1062h443v-1062h-443z" />
<glyph unicode="&#xef;" horiz-adv-x="653" d="M-107 1279v281h336v-281h-336zM105 0v1062h443v-1062h-443zM423 1279v281h336v-281h-336z" />
<glyph unicode="&#xf0;" horiz-adv-x="1353" d="M97 265v437l266 239h372v-239h-196v-437h196v-265h-372zM446 1178l162 81l-102 118l320 152l107 -129l184 84l88 -172l-151 -77l191 -269l3 -701l-266 -265h-177v962l-97 131l-166 -78z" />
<glyph unicode="&#xf1;" horiz-adv-x="1356" d="M104 0v1062h446v-1062h-446zM240 1344l195 214h283l108 -151h67l138 115l87 -87l-195 -214h-283l-108 150h-67l-138 -114zM622 797v116l148 149h246l239 -239v-823h-443v797h-190z" />
<glyph unicode="&#xf2;" horiz-adv-x="1383" d="M95 265v532l265 265h297v-265h-115v-549h115v-248h-297zM314 1522l184 85l486 -316l-61 -147l-555 167zM727 0v248h110v549h-110v265h296l265 -265v-532l-265 -265h-296z" />
<glyph unicode="&#xf3;" horiz-adv-x="1383" d="M95 265v532l265 265h297v-265h-115v-549h115v-248h-297zM406 1291l486 316l184 -85l-54 -211l-554 -167zM727 0v248h110v549h-110v265h296l265 -265v-532l-265 -265h-296z" />
<glyph unicode="&#xf4;" horiz-adv-x="1383" d="M95 265v532l265 265h297v-265h-115v-549h115v-248h-297zM244 1250l295 335h304l295 -335l-93 -97l-354 210l-353 -210zM727 0v248h110v549h-110v265h296l265 -265v-532l-265 -265h-296z" />
<glyph unicode="&#xf5;" horiz-adv-x="1383" d="M95 265v532l265 265h297v-265h-115v-549h115v-248h-297zM253 1344l195 214h283l108 -151h67l138 115l87 -87l-195 -214h-283l-108 150h-67l-138 -114zM727 0v248h110v549h-110v265h296l265 -265v-532l-265 -265h-296z" />
<glyph unicode="&#xf6;" horiz-adv-x="1383" d="M95 265v532l265 265h297v-265h-115v-549h115v-248h-297zM257 1279v281h336v-281h-336zM727 0v248h110v549h-110v265h296l265 -265v-532l-265 -265h-296zM787 1279v281h336v-281h-336z" />
<glyph unicode="&#xf7;" horiz-adv-x="1439" d="M186 501v239h1067v-239h-1067zM554 86v240h331v-240h-331zM554 915v238h331v-238h-331z" />
<glyph unicode="&#xf8;" horiz-adv-x="1357" d="M95 265v532l274 265h329l-72 -265h-80v-532h23v-1h76l-129 -485l-323 84l64 244zM663 0l69 264l79 1v532h-96l126 479l323 -84l-62 -240l160 -155v-532l-274 -265h-325z" />
<glyph unicode="&#xf9;" horiz-adv-x="1350" d="M95 265v797h442v-797h197v-132l-128 -133h-245zM293 1522l184 85l486 -316l-61 -147l-555 167zM804 0v1062h442v-1062h-442z" />
<glyph unicode="&#xfa;" horiz-adv-x="1350" d="M95 265v797h442v-797h197v-132l-128 -133h-245zM385 1291l486 316l184 -85l-54 -211l-554 -167zM804 0v1062h442v-1062h-442z" />
<glyph unicode="&#xfb;" horiz-adv-x="1350" d="M95 265v797h442v-797h197v-132l-128 -133h-245zM223 1250l295 335h304l295 -335l-93 -97l-354 210l-353 -210zM804 0v1062h442v-1062h-442z" />
<glyph unicode="&#xfc;" horiz-adv-x="1350" d="M95 265v797h442v-797h197v-132l-128 -133h-245zM236 1279v281h336v-281h-336zM766 1279v281h336v-281h-336zM804 0v1062h442v-1062h-442z" />
<glyph unicode="&#xfd;" horiz-adv-x="1221" d="M-14 1062h441l149 -432l-198 -541zM272 -370l538 1432h425l-539 -1432h-424zM335 1291l486 316l184 -85l-54 -211l-554 -167z" />
<glyph unicode="&#xfe;" horiz-adv-x="1349" d="M104 -354v1804h442v-1804h-442zM613 0v265h198v532h-198v134l131 131h244l266 -265v-532l-266 -265h-375z" />
<glyph unicode="&#xff;" horiz-adv-x="1221" d="M-14 1062h441l149 -432l-198 -541zM186 1279v281h336v-281h-336zM272 -370l538 1432h425l-539 -1432h-424zM716 1279v281h336v-281h-336z" />
<glyph unicode="&#x152;" horiz-adv-x="2261" d="M86 265v797l267 265h341v-265h-165v-797h165v-265h-341zM761 0v265h166v797h-166v265h294l92 -88l87 88h135v-542h443v-232h-443v-553h-135l-89 88l-90 -88h-294zM1437 0v265h287v133h442v-398h-729zM1437 1062v265h729v-398h-442v133h-287z" />
<glyph unicode="&#x153;" horiz-adv-x="2042" d="M95 265v532l265 265h274v-265h-97v-532h97v-265h-274zM704 0v265h99v532h-99v265h230l92 -89l87 89h231v-265h-99v-532h99v-265h-231l-89 88l-90 -88h-230zM1315 434v194h196v169h-97v265h273l267 -265v-363h-639zM1414 0v265h495v-132l-133 -133h-362z" />
<glyph unicode="&#x178;" horiz-adv-x="1297" d="M-26 1327h434l459 -936v-391h-443v422zM216 1460v281h336v-281h-336zM680 920l218 407h425l-428 -843zM746 1460v281h336v-281h-336z" />
<glyph unicode="&#x2c6;" horiz-adv-x="1240" d="M173 1250l295 335h304l295 -335l-93 -97l-354 210l-353 -210z" />
<glyph unicode="&#x2dc;" horiz-adv-x="1309" d="M216 1344l195 214h283l108 -151h67l138 115l87 -87l-195 -214h-283l-108 150h-67l-138 -114z" />
<glyph unicode="&#x2000;" horiz-adv-x="883" />
<glyph unicode="&#x2001;" horiz-adv-x="1767" />
<glyph unicode="&#x2002;" horiz-adv-x="883" />
<glyph unicode="&#x2003;" horiz-adv-x="1767" />
<glyph unicode="&#x2004;" horiz-adv-x="589" />
<glyph unicode="&#x2005;" horiz-adv-x="441" />
<glyph unicode="&#x2006;" horiz-adv-x="294" />
<glyph unicode="&#x2007;" horiz-adv-x="294" />
<glyph unicode="&#x2008;" horiz-adv-x="220" />
<glyph unicode="&#x2009;" horiz-adv-x="353" />
<glyph unicode="&#x200a;" horiz-adv-x="98" />
<glyph unicode="&#x2010;" horiz-adv-x="1255" d="M186 501v239h883v-239h-883z" />
<glyph unicode="&#x2011;" horiz-adv-x="1255" d="M186 501v239h883v-239h-883z" />
<glyph unicode="&#x2012;" horiz-adv-x="1255" d="M186 501v239h883v-239h-883z" />
<glyph unicode="&#x2013;" horiz-adv-x="1623" d="M186 501v239h1251v-239h-1251z" />
<glyph unicode="&#x2014;" horiz-adv-x="1991" d="M186 501v239h1619v-239h-1619z" />
<glyph unicode="&#x2018;" horiz-adv-x="814" d="M164 752v310l176 265h267l-125 -265h168v-310h-486z" />
<glyph unicode="&#x2019;" horiz-adv-x="814" d="M163 1017v310h486v-310l-176 -265h-267l125 265h-168z" />
<glyph unicode="&#x201a;" horiz-adv-x="814" d="M163 -1v310h486v-310l-176 -265h-267l125 265h-168z" />
<glyph unicode="&#x201c;" horiz-adv-x="1421" d="M164 752v310l176 265h267l-125 -265h168v-310h-486zM773 752v310l176 265h267l-125 -265h168v-310h-486z" />
<glyph unicode="&#x201d;" horiz-adv-x="1418" d="M163 1017v310h486v-310l-176 -265h-267l125 265h-168zM767 1017v310h486v-310l-176 -265h-267l125 265h-168z" />
<glyph unicode="&#x201e;" horiz-adv-x="1418" />
<glyph unicode="&#x2022;" horiz-adv-x="918" d="M149 524v265l177 177h266l176 -177v-265l-176 -178h-266z" />
<glyph unicode="&#x2026;" horiz-adv-x="2208" d="M147 0v309h442v-309h-442zM883 0v309h442v-309h-442zM1618 0v309h442v-309h-442z" />
<glyph unicode="&#x202f;" horiz-adv-x="353" />
<glyph unicode="&#x2039;" horiz-adv-x="1090" d="M202 459v154l420 432h265l-281 -509l281 -509h-265z" />
<glyph unicode="&#x203a;" horiz-adv-x="1090" d="M202 26l281 509l-281 509h265l420 -432v-154l-420 -432h-265z" />
<glyph unicode="&#x205f;" horiz-adv-x="441" />
<glyph unicode="&#x20ac;" horiz-adv-x="1838" d="M187 474v142h139v147h-122v142h122v204l265 266h177v-470h289v-142h-289v-147h262v-142h-262v-474h-177l-265 265v209h-139zM835 0v265h331v209h442v-209l-265 -265h-508zM835 1109v266h508l265 -266v-209h-442v209h-331z" />
<glyph unicode="&#x2122;" horiz-adv-x="1507" d="M98 1182v146h474l88 -146h-562zM273 738v383h204v-383h-204zM651 738v383h45l139 -227v-156h-184zM651 1328h208l160 -264l88 152v-297l-107 -181zM1174 738v590h196v-590h-196z" />
<glyph unicode="&#x25fc;" horiz-adv-x="1060" d="M0 0v1060h1060v-1060h-1060z" />
<glyph unicode="&#xfb01;" horiz-adv-x="1560" d="M38 797v265h105v157l267 248h496v-265h-320v-1202h-443v797h-105zM653 797l3 265h799v-1062h-443v797h-359zM1012 1194v282h443v-282h-443z" />
<glyph unicode="&#xfb02;" horiz-adv-x="1660" d="M38 797v265h105v157l267 248h1045v-265h-2v-937h198v-265h-392l-248 248v954h-425v-1202h-443v797h-105zM653 797l3 265h250v-265h-253z" />
</font>
</defs>
</svg>
